
    <svg xmlns="http://www.w3.org/2000/svg" viewBox="0 0 600 650" width="600" height="650">
      <defs>
        <marker id="arrow" viewBox="0 0 10 10" refX="6" refY="5" markerWidth="6" markerHeight="6" orient="auto-start-reverse">
          <path d="M 0 1.5 L 10 5 L 0 8.5 z" fill="#64748b"/>
        </marker>
      </defs>
      <style>
        .title { font-family: 'Inter', sans-serif; font-size: 13px; font-weight: 800; fill: #ffffff; letter-spacing: 0.5px; }
      </style>
      <rect width="100%" height="100%" fill="#0f172a" rx="16"/>
      <rect width="100%" height="50" fill="#1e293b" rx="16"/>
      <text x="25" y="30" class="title">LUỒNG 39: ADMIN THEO DÕI LOG ĐĂNG NHẬP (AUDIT LOGS)</text>
      
      <!-- Flow Category Tag -->
      <rect x="445" y="13" width="130" height="24" rx="12" fill="#22d3ee" opacity="0.15"/>
      <text x="510" y="28" fill="#22d3ee" font-size="8.5" font-family="Inter, sans-serif" font-weight="900" text-anchor="middle" letter-spacing="1">AUDIT LOG FLOW</text>

      <!-- Start -->
      <circle cx="300" cy="80" r="12" fill="#38bdf8"/>
      <text x="300" y="60" fill="#38bdf8" font-size="8" font-family="Inter, sans-serif" font-weight="900" text-anchor="middle">START</text>
      
      <line x1="300" y1="92" x2="300" y2="120" stroke="#64748b" stroke-width="2" marker-end="url(#arrow)"/>

      <!-- Step 1: Intercept Action -->
      <g transform="translate(150, 120)">
        <rect width="300" height="50" rx="12" ry="12" fill="#1e293b" stroke="#22d3ee" stroke-width="2"/>
        <text x="20" y="18" fill="#22d3ee" font-size="7.5" font-family="Inter, sans-serif" font-weight="900">SYSTEM SECURITY</text>
        <text x="20" y="34" fill="#ffffff" font-size="10.5" font-family="Inter, sans-serif" font-weight="700">1. Đánh giá hành động quản trị (Login/Delete)</text>
      </g>

      <line x1="300" y1="170" x2="300" y2="200" stroke="#64748b" stroke-width="2" marker-end="url(#arrow)"/>

      <!-- Decision Diamond -->
      <g transform="translate(280, 200)">
        <polygon points="20,0 40,20 20,40 0,20" fill="#1e293b" stroke="#38bdf8" stroke-width="2"/>
      </g>
      
      <!-- Branch: Success (Left) -->
      <path d="M 280 220 H 150 V 270" fill="none" stroke="#10b981" stroke-width="2" marker-end="url(#arrow)"/>
      <text x="210" y="212" fill="#10b981" font-size="9" font-family="Inter, sans-serif" font-weight="900" text-anchor="middle">[THÀNH CÔNG]</text>
      
      <g transform="translate(30, 270)">
        <rect width="230" height="60" rx="10" fill="#1e293b" stroke="#10b981" stroke-width="1.5"/>
        <text x="15" y="20" fill="#10b981" font-size="7.5" font-weight="bold">LOG: SUCCESS = TRUE</text>
        <text x="15" y="40" fill="#ffffff" font-size="9.5" font-weight="bold">Ghi nhận thông tin &amp; IP kết nối</text>
      </g>

      <!-- Branch: Failure (Right) -->
      <path d="M 320 220 H 450 V 270" fill="none" stroke="#f43f5e" stroke-width="2" marker-end="url(#arrow)"/>
      <text x="390" y="212" fill="#f43f5e" font-size="9" font-family="Inter, sans-serif" font-weight="900" text-anchor="middle">[THẤT BẠI / NGUY HIỂM]</text>
      
      <g transform="translate(340, 270)">
        <rect width="230" height="60" rx="10" fill="#1e293b" stroke="#f43f5e" stroke-width="1.5"/>
        <text x="15" y="20" fill="#f43f5e" font-size="7.5" font-weight="bold">LOG: SUCCESS = FALSE</text>
        <text x="15" y="40" fill="#ffffff" font-size="9.5" font-weight="bold">Cảnh cáo đỏ &amp; ghi vết xâm nhập</text>
      </g>

      <!-- Merge Diamond -->
      <path d="M 145 330 V 380 H 280" fill="none" stroke="#64748b" stroke-width="2"/>
      <path d="M 455 330 V 380 H 320" fill="none" stroke="#64748b" stroke-width="2"/>
      
      <g transform="translate(280, 360)">
        <polygon points="20,0 40,20 20,40 0,20" fill="#1e293b" stroke="#64748b" stroke-width="1.5"/>
      </g>

      <line x1="300" y1="400" x2="300" y2="430" stroke="#64748b" stroke-width="2" marker-end="url(#arrow)"/>

      <!-- Save DB -->
      <g transform="translate(150, 430)">
        <rect width="300" height="50" rx="12" ry="12" fill="#1e293b" stroke="#34d399" stroke-width="2"/>
        <text x="20" y="18" fill="#34d399" font-size="7.5" font-family="Inter, sans-serif" font-weight="900">POSTGRESQL DB</text>
        <text x="20" y="34" fill="#ffffff" font-size="10.5" font-family="Inter, sans-serif" font-weight="700">2. Lưu bản ghi vào bảng AuditLogs</text>
      </g>

      <line x1="300" y1="480" x2="300" y2="510" stroke="#64748b" stroke-width="2" marker-end="url(#arrow)"/>

      <!-- Dashboard View -->
      <g transform="translate(150, 510)">
        <rect width="300" height="50" rx="12" ry="12" fill="#1e293b" stroke="#f87171" stroke-width="2"/>
        <text x="20" y="18" fill="#f87171" font-size="7.5" font-family="Inter, sans-serif" font-weight="900">ADMINISTRATOR</text>
        <text x="20" y="34" fill="#ffffff" font-size="10.5" font-family="Inter, sans-serif" font-weight="700">3. Admin truy cập /audit &amp; xem log bảng</text>
      </g>

      <line x1="300" y1="560" x2="300" y2="585" stroke="#64748b" stroke-width="2" marker-end="url(#arrow)"/>
      <circle cx="300" cy="595" r="12" fill="none" stroke="#f43f5e" stroke-width="2"/>
      <circle cx="300" cy="595" r="7" fill="#f43f5e"/>
      <text x="300" y="625" fill="#f43f5e" font-size="8" font-family="Inter, sans-serif" font-weight="900" text-anchor="middle" letter-spacing="1">END</text>
    </svg>
  