
    <svg xmlns="http://www.w3.org/2000/svg" viewBox="0 0 600 550" width="600" height="550">
      <defs>
        <marker id="arrow" viewBox="0 0 10 10" refX="6" refY="5" markerWidth="6" markerHeight="6" orient="auto-start-reverse">
          <path d="M 0 1.5 L 10 5 L 0 8.5 z" fill="#64748b"/>
        </marker>
      </defs>
      <style>
        .title { font-family: 'Inter', sans-serif; font-size: 13px; font-weight: 800; fill: #ffffff; letter-spacing: 0.5px; }
      </style>
      <rect width="100%" height="100%" fill="#0f172a" rx="16"/>
      <rect width="100%" height="50" fill="#1e293b" rx="16"/>
      <text x="25" y="30" class="title">LUỒNG 5: DUYỆT/TỪ CHỐI ĐĂNG KÝ ĐỀ TÀI</text>
      
      <!-- Flow Category Tag -->
      <rect x="445" y="13" width="130" height="24" rx="12" fill="#38bdf8" opacity="0.15"/>
      <text x="510" y="28" fill="#38bdf8" font-size="8.5" font-family="Inter, sans-serif" font-weight="900" text-anchor="middle" letter-spacing="1">DECISION FLOW</text>

      <!-- Start -->
      <circle cx="300" cy="80" r="12" fill="#38bdf8"/>
      
      <line x1="300" y1="92" x2="300" y2="120" stroke="#64748b" stroke-width="2" marker-end="url(#arrow)"/>

      <!-- Step 1: Review -->
      <g transform="translate(150, 120)">
        <rect width="300" height="50" rx="12" ry="12" fill="#1e293b" stroke="#f59e0b" stroke-width="2"/>
        <text x="20" y="18" fill="#f59e0b" font-size="7.5" font-family="Inter, sans-serif" font-weight="900">GIẢNG VIÊN HƯỚNG DẪN</text>
        <text x="20" y="34" fill="#ffffff" font-size="10.5" font-family="Inter, sans-serif" font-weight="700">1. Xem xét hồ sơ đề xuất tại /requests</text>
      </g>

      <line x1="300" y1="170" x2="300" y2="200" stroke="#64748b" stroke-width="2" marker-end="url(#arrow)"/>

      <!-- Decision Diamond -->
      <g transform="translate(280, 200)">
        <polygon points="20,0 40,20 20,40 0,20" fill="#1e293b" stroke="#38bdf8" stroke-width="2"/>
      </g>
      
      <!-- Branch: Rejected -->
      <path d="M 280 220 H 130 V 270" fill="none" stroke="#f43f5e" stroke-width="2" marker-end="url(#arrow)"/>
      <text x="200" y="212" fill="#f43f5e" font-size="9" font-family="Inter, sans-serif" font-weight="900" text-anchor="middle">[TỪ CHỐI]</text>
      
      <g transform="translate(20, 270)">
        <rect width="220" height="60" rx="10" fill="#1e293b" stroke="#f43f5e" stroke-width="1.5"/>
        <text x="15" y="20" fill="#f43f5e" font-size="7.5" font-weight="bold">STATUS = REJECTED</text>
        <text x="15" y="40" fill="#ffffff" font-size="10" font-weight="bold">Cập nhật Rejected &amp; ghi lý do</text>
      </g>

      <!-- Branch: Approved -->
      <path d="M 320 220 H 470 V 270" fill="none" stroke="#10b981" stroke-width="2" marker-end="url(#arrow)"/>
      <text x="400" y="212" fill="#10b981" font-size="9" font-family="Inter, sans-serif" font-weight="900" text-anchor="middle">[PHÊ DUYỆT]</text>
      
      <g transform="translate(360, 270)">
        <rect width="220" height="60" rx="10" fill="#1e293b" stroke="#10b981" stroke-width="1.5"/>
        <text x="15" y="20" fill="#10b981" font-size="7.5" font-weight="bold">STATUS = INPROGRESS</text>
        <text x="15" y="40" fill="#ffffff" font-size="10" font-weight="bold">Cập nhật InProgress &amp; ApprovedAt</text>
      </g>

      <!-- Merge Diamond -->
      <path d="M 130 330 V 380 H 280" fill="none" stroke="#64748b" stroke-width="1.5"/>
      <path d="M 470 330 V 380 H 320" fill="none" stroke="#64748b" stroke-width="1.5"/>
      
      <g transform="translate(280, 360)">
        <polygon points="20,0 40,20 20,40 0,20" fill="#1e293b" stroke="#64748b" stroke-width="1.5"/>
      </g>

      <line x1="300" y1="400" x2="300" y2="430" stroke="#64748b" stroke-width="2" marker-end="url(#arrow)"/>

      <!-- Notification Action -->
      <g transform="translate(150, 430)">
        <rect width="300" height="50" rx="12" ry="12" fill="#1e293b" stroke="#10b981" stroke-width="2"/>
        <text x="20" y="18" fill="#10b981" font-size="7.5" font-family="Inter, sans-serif" font-weight="900">BACKEND API</text>
        <text x="20" y="34" fill="#ffffff" font-size="10.5" font-family="Inter, sans-serif" font-weight="700">3. Lưu thông báo &amp; Đồng bộ trạng thái</text>
      </g>

      <line x1="300" y1="480" x2="300" y2="505" stroke="#64748b" stroke-width="2" marker-end="url(#arrow)"/>
      <circle cx="300" cy="515" r="10" fill="none" stroke="#f43f5e" stroke-width="2"/>
      <circle cx="300" cy="515" r="6" fill="#f43f5e"/>
    </svg>
  