
    <svg xmlns="http://www.w3.org/2000/svg" viewBox="0 0 600 550" width="600" height="550">
      <defs>
        <marker id="arrow" viewBox="0 0 10 10" refX="6" refY="5" markerWidth="6" markerHeight="6" orient="auto-start-reverse">
          <path d="M 0 1.5 L 10 5 L 0 8.5 z" fill="#64748b"/>
        </marker>
      </defs>
      <style>
        .title { font-family: 'Inter', sans-serif; font-size: 13px; font-weight: 800; fill: #ffffff; letter-spacing: 0.5px; }
      </style>
      <rect width="100%" height="100%" fill="#0f172a" rx="16"/>
      <rect width="100%" height="50" fill="#1e293b" rx="16"/>
      <text x="25" y="30" class="title">LUỒNG 12: ĐỒNG BỘ TỰ ĐỘNG TÀI LIỆU LÊN GOOGLE DRIVE</text>
      
      <!-- Flow Category Tag -->
      <rect x="445" y="13" width="130" height="24" rx="12" fill="#a78bfa" opacity="0.15"/>
      <text x="510" y="28" fill="#a78bfa" font-size="8.5" font-family="Inter, sans-serif" font-weight="900" text-anchor="middle" letter-spacing="1">FORK &amp; JOIN FLOW</text>

      <!-- Start -->
      <circle cx="300" cy="80" r="12" fill="#38bdf8"/>
      
      <line x1="300" y1="92" x2="300" y2="120" stroke="#64748b" stroke-width="2" marker-end="url(#arrow)"/>

      <!-- Input Step -->
      <g transform="translate(150, 120)">
        <rect width="300" height="50" rx="12" ry="12" fill="#1e293b" stroke="#a78bfa" stroke-width="2"/>
        <text x="20" y="18" fill="#a78bfa" font-size="7.5" font-family="Inter, sans-serif" font-weight="900">SINH VIÊN</text>
        <text x="20" y="34" fill="#ffffff" font-size="10.5" font-family="Inter, sans-serif" font-weight="700">1. Nộp bản thảo đồ án tốt nghiệp (.docx)</text>
      </g>

      <line x1="300" y1="170" x2="300" y2="195" stroke="#64748b" stroke-width="2" marker-end="url(#arrow)"/>

      <!-- UML Fork Bar -->
      <rect x="80" y="195" width="440" height="8" fill="#000000" rx="3" stroke="#475569" stroke-width="1"/>

      <!-- Fork Arrow Left -->
      <path d="M 180 203 V 230" fill="none" stroke="#64748b" stroke-width="2" marker-end="url(#arrow)"/>
      <!-- Action Left: Sync to Drive -->
      <g transform="translate(30, 230)">
        <rect width="240" height="60" rx="10" fill="#1e293b" stroke="#fb7185" stroke-width="1.5"/>
        <text x="15" y="20" fill="#fb7185" font-size="7.5" font-weight="bold">DRIVE SERVICE</text>
        <text x="15" y="40" fill="#ffffff" font-size="9.5" font-weight="bold">Đồng bộ tự động &amp; Lưu record</text>
      </g>

      <!-- Fork Arrow Right -->
      <path d="M 420 203 V 230" fill="none" stroke="#64748b" stroke-width="2" marker-end="url(#arrow)"/>
      <!-- Action Right: Convert Docx to PDF -->
      <g transform="translate(330, 230)">
        <rect width="240" height="60" rx="10" fill="#1e293b" stroke="#fbbf24" stroke-width="1.5"/>
        <text x="15" y="20" fill="#fbbf24" font-size="7.5" font-weight="bold">LIBREOFFICE CONVERTER</text>
        <text x="15" y="40" fill="#ffffff" font-size="9.5" font-weight="bold">Convert Word sang PDF không đầu</text>
      </g>

      <!-- Path Left to Join -->
      <path d="M 150 290 V 335" fill="none" stroke="#64748b" stroke-width="2"/>
      <!-- Path Right to Join -->
      <path d="M 450 290 V 335" fill="none" stroke="#64748b" stroke-width="2"/>

      <!-- UML Join Bar -->
      <rect x="80" y="335" width="440" height="8" fill="#000000" rx="3" stroke="#475569" stroke-width="1"/>

      <!-- Arrow out of Join -->
      <path d="M 300 343 V 375" fill="none" stroke="#64748b" stroke-width="2" marker-end="url(#arrow)"/>

      <!-- Final Action -->
      <g transform="translate(150, 375)">
        <rect width="300" height="50" rx="12" ry="12" fill="#1e293b" stroke="#818cf8" stroke-width="2"/>
        <text x="20" y="18" fill="#818cf8" font-size="7.5" font-family="Inter, sans-serif" font-weight="900">QUEUE SERVICE</text>
        <text x="20" y="34" fill="#ffffff" font-size="10.5" font-family="Inter, sans-serif" font-weight="700">Kích hoạt xếp hàng quét đạo văn</text>
      </g>

      <line x1="300" y1="425" x2="300" y2="455" stroke="#64748b" stroke-width="2" marker-end="url(#arrow)"/>
      <circle cx="300" cy="465" r="10" fill="none" stroke="#f43f5e" stroke-width="2"/>
      <circle cx="300" cy="465" r="6" fill="#f43f5e"/>
    </svg>
  