
    <svg xmlns="http://www.w3.org/2000/svg" viewBox="0 0 600 650" width="600" height="650">
      <defs>
        <marker id="arrow" viewBox="0 0 10 10" refX="6" refY="5" markerWidth="6" markerHeight="6" orient="auto-start-reverse">
          <path d="M 0 1.5 L 10 5 L 0 8.5 z" fill="#64748b"/>
        </marker>
      </defs>
      <style>
        .title { font-family: 'Inter', sans-serif; font-size: 13px; font-weight: 800; fill: #ffffff; letter-spacing: 0.5px; }
      </style>
      <rect width="100%" height="100%" fill="#0f172a" rx="16"/>
      <rect width="100%" height="50" fill="#1e293b" rx="16"/>
      <text x="25" y="30" class="title">LUỒNG 29: GIẢNG VIÊN CHẤM ĐIỂM VÀ NHẬN XÉT BẢN THẢO</text>
      
      <!-- Flow Category Tag -->
      <rect x="445" y="13" width="130" height="24" rx="12" fill="#ec4899" opacity="0.15"/>
      <text x="510" y="28" fill="#ec4899" font-size="8.5" font-family="Inter, sans-serif" font-weight="900" text-anchor="middle" letter-spacing="1">ADVISOR REVIEW</text>

      <!-- Start -->
      <circle cx="300" cy="80" r="12" fill="#38bdf8"/>
      <text x="300" y="60" fill="#38bdf8" font-size="8" font-family="Inter, sans-serif" font-weight="900" text-anchor="middle">START</text>
      
      <line x1="300" y1="92" x2="300" y2="120" stroke="#64748b" stroke-width="2" marker-end="url(#arrow)"/>

      <!-- Step 1: Phân tích Đồ án -->
      <g transform="translate(150, 120)">
        <rect width="300" height="50" rx="12" ry="12" fill="#1e293b" stroke="#f59e0b" stroke-width="2"/>
        <text x="20" y="18" fill="#f59e0b" font-size="7.5" font-family="Inter, sans-serif" font-weight="900">GIẢNG VIÊN</text>
        <text x="20" y="34" fill="#ffffff" font-size="10.5" font-family="Inter, sans-serif" font-weight="700">1. Phân tích Đồ án / Khóa luận</text>
      </g>

      <line x1="300" y1="170" x2="300" y2="200" stroke="#64748b" stroke-width="2" marker-end="url(#arrow)"/>

      <!-- Step 2: Tóm tắt & Check đạo văn -->
      <g transform="translate(150, 200)">
        <rect width="300" height="50" rx="12" ry="12" fill="#1e293b" stroke="#c084fc" stroke-width="2"/>
        <text x="20" y="18" fill="#c084fc" font-size="7.5" font-family="Inter, sans-serif" font-weight="900">GEMINI AI / HỆ THỐNG</text>
        <text x="20" y="34" fill="#ffffff" font-size="10.5" font-family="Inter, sans-serif" font-weight="700">2. Dùng Gemini tóm tắt &amp; kiểm tra đạo văn</text>
      </g>

      <line x1="300" y1="250" x2="300" y2="280" stroke="#64748b" stroke-width="2" marker-end="url(#arrow)"/>

      <!-- Decision Diamond -->
      <g transform="translate(280, 280)">
        <polygon points="20,0 40,20 20,40 0,20" fill="#1e293b" stroke="#38bdf8" stroke-width="2"/>
      </g>
      
      <!-- Branch: High Plagiarism Rate (Right) -->
      <path d="M 320 300 H 460 V 340" fill="none" stroke="#f43f5e" stroke-width="2" marker-end="url(#arrow)"/>
      <text x="390" y="292" fill="#f43f5e" font-size="9" font-family="Inter, sans-serif" font-weight="900" text-anchor="middle">TỈ LỆ ĐẠO VĂN CAO</text>
      
      <!-- Step 3a: Check sources -->
      <g transform="translate(340, 340)">
        <rect width="230" height="60" rx="10" fill="#1e293b" stroke="#f59e0b" stroke-width="1.5"/>
        <text x="15" y="20" fill="#f59e0b" font-size="7.5" font-weight="bold">GIẢNG VIÊN</text>
        <text x="15" y="40" fill="#ffffff" font-size="9.5" font-weight="bold">Kiểm tra nguồn &amp; đồ án liên quan</text>
      </g>

      <line x1="455" y1="400" x2="455" y2="450" stroke="#64748b" stroke-width="2" marker-end="url(#arrow)"/>

      <!-- Step 4a: Reject -->
      <g transform="translate(340, 450)">
        <rect width="230" height="60" rx="10" fill="#1e293b" stroke="#f43f5e" stroke-width="1.5"/>
        <text x="15" y="20" fill="#f43f5e" font-size="7.5" font-weight="bold">GIẢNG VIÊN</text>
        <text x="15" y="40" fill="#ffffff" font-size="9.5" font-weight="bold">Từ chối và đưa ra lý do phù hợp</text>
      </g>

      <!-- Branch: Low Plagiarism Rate (Down) -->
      <line x1="300" y1="320" x2="300" y2="360" stroke="#10b981" stroke-width="2" marker-end="url(#arrow)"/>
      <text x="310" y="340" fill="#10b981" font-size="9" font-family="Inter, sans-serif" font-weight="900">TỈ LỆ ĐẠO VĂN THẤP</text>

      <!-- Step 3b: Gemini suggest score -->
      <g transform="translate(30, 360)">
        <rect width="240" height="60" rx="10" fill="#1e293b" stroke="#c084fc" stroke-width="1.5"/>
        <text x="15" y="20" fill="#c084fc" font-size="7.5" font-weight="bold">GEMINI AI SERVICE</text>
        <text x="15" y="40" fill="#ffffff" font-size="9.5" font-weight="bold">Đề xuất điểm phù hợp cho đồ án</text>
      </g>

      <line x1="150" y1="420" x2="150" y2="450" stroke="#64748b" stroke-width="2" marker-end="url(#arrow)"/>

      <!-- Step 4b: Update score -->
      <g transform="translate(30, 450)">
        <rect width="240" height="60" rx="10" fill="#1e293b" stroke="#f59e0b" stroke-width="1.5"/>
        <text x="15" y="20" fill="#f59e0b" font-size="7.5" font-weight="bold">GIẢNG VIÊN</text>
        <text x="15" y="40" fill="#ffffff" font-size="9.5" font-weight="bold">Cập nhật điểm vào hệ thống</text>
      </g>

      <!-- Merge path to End -->
      <path d="M 150 510 V 550 H 300" fill="none" stroke="#64748b" stroke-width="2"/>
      <path d="M 455 510 V 550 H 300" fill="none" stroke="#64748b" stroke-width="2"/>

      <line x1="300" y1="550" x2="300" y2="580" stroke="#64748b" stroke-width="2" marker-end="url(#arrow)"/>

      <!-- End Node -->
      <circle cx="300" cy="595" r="12" fill="none" stroke="#f43f5e" stroke-width="2"/>
      <circle cx="300" cy="595" r="7" fill="#f43f5e"/>
      <text x="300" y="625" fill="#f43f5e" font-size="8" font-family="Inter, sans-serif" font-weight="900" text-anchor="middle" letter-spacing="1">END</text>
    </svg>
  