
    <svg xmlns="http://www.w3.org/2000/svg" viewBox="0 0 600 550" width="600" height="550">
      <defs>
        <marker id="arrow" viewBox="0 0 10 10" refX="6" refY="5" markerWidth="6" markerHeight="6" orient="auto-start-reverse">
          <path d="M 0 1.5 L 10 5 L 0 8.5 z" fill="#64748b"/>
        </marker>
      </defs>
      <style>
        .title { font-family: 'Inter', sans-serif; font-size: 13px; font-weight: 800; fill: #ffffff; letter-spacing: 0.5px; }
      </style>
      <rect width="100%" height="100%" fill="#0f172a" rx="16"/>
      <rect width="100%" height="50" fill="#1e293b" rx="16"/>
      <text x="25" y="30" class="title">LUỒNG 1: ĐĂNG NHẬP VÀ XÁC THỰC</text>
      
      <!-- Flow Category Tag -->
      <rect x="445" y="13" width="130" height="24" rx="12" fill="#f59e0b" opacity="0.15"/>
      <text x="510" y="28" fill="#f59e0b" font-size="8.5" font-family="Inter, sans-serif" font-weight="900" text-anchor="middle" letter-spacing="1">COMPLEX DECISION</text>

      <!-- Start -->
      <circle cx="300" cy="80" r="12" fill="#38bdf8"/>
      <text x="300" y="60" fill="#38bdf8" font-size="8" font-family="Inter, sans-serif" font-weight="900" text-anchor="middle">START</text>
      
      <line x1="300" y1="92" x2="300" y2="120" stroke="#64748b" stroke-width="2" marker-end="url(#arrow)"/>

      <!-- Step 1: Input details -->
      <g transform="translate(150, 120)">
        <rect width="300" height="50" rx="12" ry="12" fill="#1e293b" stroke="#e2e8f0" stroke-width="2"/>
        <text x="20" y="18" fill="#e2e8f0" font-size="7.5" font-family="Inter, sans-serif" font-weight="900">NGƯỜI DÙNG</text>
        <text x="20" y="34" fill="#ffffff" font-size="10.5" font-family="Inter, sans-serif" font-weight="700">1. Nhập Email/Mật khẩu đăng nhập</text>
      </g>

      <line x1="300" y1="170" x2="300" y2="200" stroke="#64748b" stroke-width="2" marker-end="url(#arrow)"/>

      <!-- Step 2: Call Login API -->
      <g transform="translate(150, 200)">
        <rect width="300" height="50" rx="12" ry="12" fill="#1e293b" stroke="#10b981" stroke-width="2"/>
        <text x="20" y="18" fill="#10b981" font-size="7.5" font-family="Inter, sans-serif" font-weight="900">BACKEND API</text>
        <text x="20" y="34" fill="#ffffff" font-size="10.5" font-family="Inter, sans-serif" font-weight="700">2. Gửi POST /api/auth/login &amp; Check BCrypt</text>
      </g>

      <line x1="300" y1="250" x2="300" y2="280" stroke="#64748b" stroke-width="2" marker-end="url(#arrow)"/>

      <!-- Decision Diamond -->
      <g transform="translate(280, 280)">
        <polygon points="20,0 40,20 20,40 0,20" fill="#1e293b" stroke="#38bdf8" stroke-width="2"/>
      </g>
      
      <!-- Loopback path (invalid credentials) -->
      <path d="M 280 300 H 90 V 145 H 150" fill="none" stroke="#f43f5e" stroke-width="2" stroke-dasharray="4 3" marker-end="url(#arrow)"/>
      <text x="80" y="220" fill="#f43f5e" font-size="8.5" font-family="Inter, sans-serif" font-weight="900" transform="rotate(-90 80 220)" text-anchor="middle">[SAI THÔNG TIN / KHÔNG HỢP LỆ]</text>

      <!-- Valid Credentials path -->
      <line x1="300" y1="320" x2="300" y2="360" stroke="#10b981" stroke-width="2" marker-end="url(#arrow)"/>
      <text x="310" y="345" fill="#10b981" font-size="9" font-family="Inter, sans-serif" font-weight="900">[HỢP LỆ]</text>

      <!-- Step 3: Success -->
      <g transform="translate(150, 360)">
        <rect width="300" height="50" rx="12" ry="12" fill="#1e293b" stroke="#10b981" stroke-width="2"/>
        <text x="20" y="18" fill="#10b981" font-size="7.5" font-family="Inter, sans-serif" font-weight="900">BACKEND API</text>
        <text x="20" y="34" fill="#ffffff" font-size="10.5" font-family="Inter, sans-serif" font-weight="700">3. Sinh JWT Token &amp; Lưu LocalStorage</text>
      </g>

      <line x1="300" y1="410" x2="300" y2="440" stroke="#64748b" stroke-width="2" marker-end="url(#arrow)"/>

      <!-- Step 4: Redirect -->
      <g transform="translate(150, 440)">
        <rect width="300" height="50" rx="12" ry="12" fill="#1e293b" stroke="#38bdf8" stroke-width="2"/>
        <text x="20" y="18" fill="#38bdf8" font-size="7.5" font-family="Inter, sans-serif" font-weight="900">FRONTEND</text>
        <text x="20" y="34" fill="#ffffff" font-size="10.5" font-family="Inter, sans-serif" font-weight="700">4. Đăng nhập thành công, chuyển hướng</text>
      </g>

      <line x1="300" y1="490" x2="300" y2="515" stroke="#64748b" stroke-width="2" marker-end="url(#arrow)"/>
      
      <circle cx="300" cy="525" r="12" fill="none" stroke="#f43f5e" stroke-width="2"/>
      <circle cx="300" cy="525" r="7" fill="#f43f5e"/>
    </svg>
  