
    <svg xmlns="http://www.w3.org/2000/svg" viewBox="0 0 900 450" width="900" height="450">
      <style>
        .title { font-family: 'Arial', sans-serif; font-size: 15px; font-weight: bold; fill: #000000; }
        .state-name { font-family: 'Arial', sans-serif; font-size: 11px; font-weight: bold; fill: #000000; }
        .state-desc { font-family: 'Arial', sans-serif; font-size: 9px; fill: #000000; }
        .trans-label { font-family: 'Arial', sans-serif; font-size: 9px; fill: #000000; }
        .conn { stroke: #000000; stroke-width: 1.2; fill: none; }
      </style>
      
      <!-- Background -->
      <rect width="100%" height="100%" fill="#ffffff" stroke="#cbd5e1" stroke-width="1.5" rx="16"/>
      
      <!-- Header -->
      <rect width="100%" height="60" fill="#f8fafc" stroke="#cbd5e1" stroke-width="1.5" rx="16"/>
      <text x="30" y="35" class="title">STATE DIAGRAM - PHASE 2: VẬN HÀNH &amp; CẤP QUYỀN TRUY CẬP</text>
      <rect x="730" y="18" width="140" height="24" rx="12" fill="#000000" opacity="0.05"/>
      <text x="800" y="33" fill="#000000" font-family="Arial, sans-serif" font-size="9" font-weight="bold" text-anchor="middle">ACCESS CONTROL</text>

      <!-- Connections -->
      <line x1="80" y1="160" x2="150" y2="160" class="conn" marker-end="url(#arrow)"/>

      <line x1="310" y1="160" x2="430" y2="160" class="conn" marker-end="url(#arrow)"/>

      <line x1="470" y1="160" x2="580" y2="160" class="conn" marker-end="url(#arrow)"/>
      <text x="525" y="150" class="trans-label" text-anchor="middle">[isConfidential]</text>

      <path d="M 450 180 V 315 H 580" class="conn" marker-end="url(#arrow)"/>
      <text x="460" y="240" class="trans-label">[isOutdated]</text>

      <path d="M 665 115 V 70 H 230 V 115" class="conn" marker-end="url(#arrow)"/>
      <text x="440" y="60" class="trans-label" text-anchor="middle">setPublic()</text>

      <line x1="665" y1="205" x2="665" y2="260" class="conn" marker-end="url(#arrow)"/>
      <text x="675" y="235" class="trans-label">deprecate()</text>

      <line x1="750" y1="305" x2="830" y2="305" class="conn" marker-end="url(#arrow)"/>
      <text x="790" y="295" class="trans-label" text-anchor="middle">archive()</text>

      <!-- States -->
      <!-- Start Circle -->
      <circle cx="70" cy="160" r="10" fill="#000000"/>

      <!-- PUBLISHED -->
      <g transform="translate(150, 115)">
        <rect width="160" height="90" rx="8" ry="8" fill="#ffffff" stroke="#000000" stroke-width="1.5"/>
        <text x="80" y="25" class="state-name" text-anchor="middle">PUBLISHED</text>
        <line x1="0" y1="35" x2="160" y2="35" stroke="#000000" stroke-width="1"/>
        <text x="10" y="55" class="state-desc">entry / indexElastic()</text>
        <text x="10" y="75" class="state-desc">do / enableAccess()</text>
      </g>

      <!-- Decision Guard Diamond -->
      <polygon points="450,140 470,160 450,180 430,160" fill="#ffffff" stroke="#000000" stroke-width="1.5"/>

      <!-- RESTRICTED -->
      <g transform="translate(580, 115)">
        <rect width="170" height="90" rx="8" ry="8" fill="#ffffff" stroke="#000000" stroke-width="1.5"/>
        <text x="85" y="25" class="state-name" text-anchor="middle">RESTRICTED</text>
        <line x1="0" y1="35" x2="170" y2="35" stroke="#000000" stroke-width="1"/>
        <text x="10" y="55" class="state-desc">entry / disableAccess()</text>
        <text x="10" y="75" class="state-desc">do / showMetadataOnly()</text>
      </g>

      <!-- ARCHIVED -->
      <g transform="translate(580, 260)">
        <rect width="170" height="90" rx="8" ry="8" fill="#ffffff" stroke="#000000" stroke-width="1.5"/>
        <text x="85" y="25" class="state-name" text-anchor="middle">ARCHIVED</text>
        <line x1="0" y1="35" x2="170" y2="35" stroke="#000000" stroke-width="1"/>
        <text x="10" y="55" class="state-desc">entry / moveToColdStore()</text>
      </g>

      <!-- End State -->
      <g transform="translate(830, 295)">
        <circle cx="10" cy="10" r="10" fill="none" stroke="#000000" stroke-width="1.5"/>
        <circle cx="10" cy="10" r="6" fill="#000000"/>
      </g>

      <!-- Definitions -->
      <defs>
        <marker id="arrow" viewBox="0 0 10 10" refX="8" refY="5" markerWidth="6" markerHeight="6" orient="auto">
          <path d="M 0 1.5 L 8 5 L 0 8.5 z" fill="#000000"/>
        </marker>
      </defs>
    </svg>
  