
    <svg xmlns="http://www.w3.org/2000/svg" viewBox="0 0 900 400" width="900" height="400">
      <style>
        .title { font-family: 'Arial', sans-serif; font-size: 15px; font-weight: bold; fill: #000000; }
        .state-name { font-family: 'Arial', sans-serif; font-size: 11px; font-weight: bold; fill: #000000; }
        .state-desc { font-family: 'Arial', sans-serif; font-size: 9px; fill: #000000; }
        .trans-label { font-family: 'Arial', sans-serif; font-size: 9px; fill: #000000; }
        .conn { stroke: #000000; stroke-width: 1.2; fill: none; }
        .conn-dash { stroke: #000000; stroke-width: 1.2; stroke-dasharray: 3 3; fill: none; }
      </style>
      
      <!-- Background (White Canvas) -->
      <rect width="100%" height="100%" fill="#ffffff" stroke="#cbd5e1" stroke-width="1.5" rx="16"/>
      
      <!-- Header -->
      <rect width="100%" height="60" fill="#f8fafc" stroke="#cbd5e1" stroke-width="1.5" rx="16"/>
      <text x="30" y="35" class="title">STATE DIAGRAM - PHASE 1: ĐỀ XUẤT &amp; XÉT DUYỆT ĐỀ TÀI</text>
      <rect x="730" y="18" width="140" height="24" rx="12" fill="#000000" opacity="0.05"/>
      <text x="800" y="33" fill="#000000" font-family="Arial, sans-serif" font-size="9" font-weight="bold" text-anchor="middle">PROPOSAL STAGE</text>

      <!-- Connections -->
      <line x1="80" y1="160" x2="150" y2="160" class="conn" marker-end="url(#arrow)"/>
      <text x="115" y="150" class="trans-label" text-anchor="middle">create()</text>

      <line x1="310" y1="160" x2="420" y2="160" class="conn" marker-end="url(#arrow)"/>
      <text x="365" y="150" class="trans-label" text-anchor="middle">submit()</text>

      <line x1="510" y1="205" x2="510" y2="260" class="conn" marker-end="url(#arrow)"/>
      <text x="520" y="225" class="trans-label">reject()</text>

      <path d="M 420 300 H 230 V 205" class="conn-dash" marker-end="url(#arrow)"/>
      <text x="240" y="290" class="trans-label">edit()</text>

      <line x1="600" y1="160" x2="700" y2="160" class="conn" marker-end="url(#arrow)"/>
      <text x="650" y="150" class="trans-label" text-anchor="middle">approve()</text>

      <!-- States -->
      <!-- Start Circle -->
      <circle cx="70" cy="160" r="10" fill="#000000"/>

      <!-- DRAFT -->
      <g transform="translate(150, 125)">
        <rect width="160" height="90" rx="8" ry="8" fill="#ffffff" stroke="#000000" stroke-width="1.5"/>
        <text x="80" y="25" class="state-name" text-anchor="middle">DRAFT</text>
        <line x1="0" y1="35" x2="160" y2="35" stroke="#000000" stroke-width="1"/>
        <text x="10" y="55" class="state-desc">entry / createRecord()</text>
        <text x="10" y="75" class="state-desc">do / editMetadata()</text>
      </g>

      <!-- PENDING -->
      <g transform="translate(420, 115)">
        <rect width="180" height="90" rx="8" ry="8" fill="#ffffff" stroke="#000000" stroke-width="1.5"/>
        <text x="90" y="25" class="state-name" text-anchor="middle">PENDING_REVIEW</text>
        <line x1="0" y1="35" x2="180" y2="35" stroke="#000000" stroke-width="1"/>
        <text x="10" y="55" class="state-desc">entry / notifyCataloger()</text>
        <text x="10" y="75" class="state-desc">do / verifyCopyright()</text>
      </g>

      <!-- REJECTED -->
      <g transform="translate(420, 260)">
        <rect width="180" height="80" rx="8" ry="8" fill="#ffffff" stroke="#000000" stroke-width="1.5"/>
        <text x="90" y="25" class="state-name" text-anchor="middle">REJECTED</text>
        <line x1="0" y1="35" x2="180" y2="35" stroke="#000000" stroke-width="1"/>
        <text x="10" y="55" class="state-desc">entry / logErrors()</text>
      </g>

      <!-- IN_PROGRESS -->
      <g transform="translate(700, 115)">
        <rect width="150" height="90" rx="8" ry="8" fill="#ffffff" stroke="#000000" stroke-width="1.5"/>
        <text x="75" y="25" class="state-name" text-anchor="middle">PUBLISHED</text>
        <line x1="0" y1="35" x2="150" y2="35" stroke="#000000" stroke-width="1"/>
        <text x="10" y="55" class="state-desc">entry / indexElastic()</text>
        <text x="10" y="75" class="state-desc">do / enableAccess()</text>
      </g>

      <!-- Definitions -->
      <defs>
        <marker id="arrow" viewBox="0 0 10 10" refX="8" refY="5" markerWidth="6" markerHeight="6" orient="auto">
          <path d="M 0 1.5 L 8 5 L 0 8.5 z" fill="#000000"/>
        </marker>
      </defs>
    </svg>
  