
    <svg xmlns="http://www.w3.org/2000/svg" viewBox="0 0 1000 480" width="1000" height="480">
      <style>
        .title { font-family: 'Arial', sans-serif; font-size: 15px; font-weight: bold; fill: #000000; }
        .tab-text { font-family: 'Arial', sans-serif; font-size: 10px; font-weight: bold; fill: #000000; }
        .state-name { font-family: 'Arial', sans-serif; font-size: 11px; font-weight: bold; fill: #000000; }
        .state-desc { font-family: 'Arial', sans-serif; font-size: 9px; fill: #000000; }
        .trans-label { font-family: 'Arial', sans-serif; font-size: 9px; fill: #000000; }
        .conn { stroke: #000000; stroke-width: 1.2; fill: none; }
      </style>
      
      <!-- Background -->
      <rect width="100%" height="100%" fill="#ffffff" stroke="#cbd5e1" stroke-width="1.5" rx="16"/>
      
      <!-- Header -->
      <rect width="100%" height="60" fill="#f8fafc" stroke="#cbd5e1" stroke-width="1.5" rx="16"/>
      <text x="30" y="35" class="title">STATE DIAGRAM - PHASE 3: TIẾN TRÌNH XỬ LÝ TÀI LIỆU SỐ</text>
      <rect x="830" y="18" width="140" height="24" rx="12" fill="#000000" opacity="0.05"/>
      <text x="900" y="33" fill="#000000" font-family="Arial, sans-serif" font-size="9" font-weight="bold" text-anchor="middle">FILE PROCESSING</text>

      <!-- Connections -->
      <line x1="60" y1="226" x2="120" y2="226" class="conn" marker-end="url(#arrow)"/>

      <!-- Inside Composite State Connections -->
      <line x1="190" y1="180" x2="240" y2="180" class="conn" marker-end="url(#arrow)"/>

      <line x1="360" y1="180" x2="420" y2="180" class="conn" marker-end="url(#arrow)"/>
      <text x="390" y="170" class="trans-label" text-anchor="middle">upload()</text>

      <line x1="560" y1="180" x2="620" y2="180" class="conn" marker-end="url(#arrow)"/>
      <text x="590" y="170" class="trans-label" text-anchor="middle">convertSuccess()</text>

      <line x1="695" y1="225" x2="695" y2="280" class="conn" marker-end="url(#arrow)"/>
      <text x="705" y="255" class="trans-label">scanSuccess()</text>

      <!-- Connection exiting composite state -->
      <line x1="770" y1="325" x2="860" y2="325" class="conn" marker-end="url(#arrow)"/>
      <text x="815" y="315" class="trans-label" text-anchor="middle">syncSuccess()</text>

      <!-- External Start Circle -->
      <circle cx="50" cy="226" r="10" fill="#000000"/>

      <!-- COMPOSITE STATE: FileProcessing -->
      <rect x="120" y="90" width="680" height="320" rx="12" ry="12" fill="none" stroke="#000000" stroke-width="1.5"/>
      <rect x="120" y="66" width="140" height="24" rx="4" fill="#ffffff" stroke="#000000" stroke-width="1.5"/>
      <text x="130" y="82" class="tab-text">FileProcessing</text>

      <!-- Inner Start Circle -->
      <circle cx="180" cy="180" r="10" fill="#000000"/>

      <!-- DRAFTING -->
      <g transform="translate(240, 135)">
        <rect width="120" height="90" rx="8" ry="8" fill="#ffffff" stroke="#000000" stroke-width="1.5"/>
        <text x="60" y="25" class="state-name" text-anchor="middle">DRAFTING</text>
        <line x1="0" y1="35" x2="120" y2="35" stroke="#000000" stroke-width="1"/>
        <text x="10" y="55" class="state-desc">entry / saveLocal()</text>
      </g>

      <!-- CONVERTING -->
      <g transform="translate(420, 135)">
        <rect width="140" height="90" rx="8" ry="8" fill="#ffffff" stroke="#000000" stroke-width="1.5"/>
        <text x="70" y="25" class="state-name" text-anchor="middle">CONVERTING</text>
        <line x1="0" y1="35" x2="140" y2="35" stroke="#000000" stroke-width="1"/>
        <text x="10" y="55" class="state-desc">do / runLibreOffice()</text>
      </g>

      <!-- SCANNING -->
      <g transform="translate(620, 135)">
        <rect width="150" height="90" rx="8" ry="8" fill="#ffffff" stroke="#000000" stroke-width="1.5"/>
        <text x="75" y="25" class="state-name" text-anchor="middle">SCANNING</text>
        <line x1="0" y1="35" x2="150" y2="35" stroke="#000000" stroke-width="1"/>
        <text x="10" y="55" class="state-desc">do / runGeminiScan()</text>
      </g>

      <!-- SYNCING -->
      <g transform="translate(620, 280)">
        <rect width="150" height="90" rx="8" ry="8" fill="#ffffff" stroke="#000000" stroke-width="1.5"/>
        <text x="75" y="25" class="state-name" text-anchor="middle">SYNCING_DRIVE</text>
        <line x1="0" y1="35" x2="150" y2="35" stroke="#000000" stroke-width="1"/>
        <text x="10" y="55" class="state-desc">do / uploadToDrive()</text>
      </g>

      <!-- External Target State: ReadyForPublish -->
      <g transform="translate(860, 280)">
        <rect width="120" height="90" rx="8" ry="8" fill="#ffffff" stroke="#000000" stroke-width="1.5"/>
        <text x="60" y="25" class="state-name" text-anchor="middle">READY</text>
        <line x1="0" y1="35" x2="120" y2="35" stroke="#000000" stroke-width="1"/>
        <text x="10" y="55" class="state-desc">do / setReadyFlag()</text>
      </g>

      <!-- Definitions -->
      <defs>
        <marker id="arrow" viewBox="0 0 10 10" refX="8" refY="5" markerWidth="6" markerHeight="6" orient="auto">
          <path d="M 0 1.5 L 8 5 L 0 8.5 z" fill="#000000"/>
        </marker>
      </defs>
    </svg>
  