
    <svg xmlns="http://www.w3.org/2000/svg" viewBox="0 0 1300 1000" width="1300" height="1000">
      <style>
        .title { font-family: 'Inter', sans-serif; font-size: 16px; font-weight: 800; fill: #ffffff; letter-spacing: 0.5px; }
        .table-title { font-family: 'Inter', sans-serif; font-size: 11px; font-weight: bold; fill: #ffffff; }
        .field { font-family: 'Inter', sans-serif; font-size: 10px; fill: #94a3b8; }
        .pk { fill: #f59e0b; font-weight: bold; }
        .fk { fill: #38bdf8; font-weight: bold; }
        .conn { stroke: #475569; stroke-width: 1.5; fill: none; }
        .conn-label { font-family: 'Inter', sans-serif; font-size: 9px; fill: #64748b; }
      </style>
      
      <!-- Background -->
      <rect width="100%" height="100%" fill="#0f172a" rx="16"/>
      
      <!-- Header -->
      <rect width="100%" height="60" fill="#1e293b" rx="16"/>
      <text x="30" y="36" class="title">ENTITY RELATIONSHIP DIAGRAM (ERD) - SYSTEM DATABASE SCHEMA</text>
      <rect x="1130" y="18" width="140" height="24" rx="12" fill="#3b82f6" opacity="0.2"/>
      <text x="1200" y="33" fill="#38bdf8" font-family="Inter, sans-serif" font-size="9" font-weight="900" text-anchor="middle">POSTGRESQL DB</text>

      <!-- Connection Lines (Relationships) -->
      <!-- Faculties (1) -> Majors (N) -->
      <path d="M 150 230 V 280" class="conn"/>
      <!-- Majors (1) -> Users (N) -->
      <path d="M 250 345 H 300" class="conn"/>
      <!-- Users (1) -> Notifications (N) -->
      <path d="M 300 400 H 270 V 580 H 250" class="conn"/>
      <!-- Users (1) -> ChatHistory (N) -->
      <path d="M 400 490 V 530" class="conn"/>

      <!-- Users (1) -> Theses (N) [Student] -->
      <path d="M 500 330 H 550" class="conn" stroke-dasharray="3 3"/>
      <!-- Users (1) -> Theses (N) [Advisor] -->
      <path d="M 500 360 H 550" class="conn"/>

      <!-- Semesters (1) -> Theses (N) -->
      <path d="M 900 230 V 260 H 710 V 280" class="conn"/>
      <!-- Subjects (1) -> Theses (N) -->
      <path d="M 1150 230 V 270 H 730 V 280" class="conn"/>

      <!-- Theses (1) -> Submissions (N) -->
      <path d="M 750 330 H 800" class="conn"/>
      <!-- Theses (1) -> PlagiarismReports (1) -->
      <path d="M 650 490 V 510 H 750 V 530" class="conn"/>

      <!-- PlagiarismReports (1) -> PlagiarismSources (N) -->
      <path d="M 770 530 V 240 H 600 V 200" class="conn"/>
      <!-- Theses (1) -> PlagiarismSources (N) -->
      <path d="M 600 280 V 200" class="conn"/>

      <!-- SocialPosts (1) -> MediaJobs (N) -->
      <path d="M 1150 700 V 740" class="conn"/>
      
      <!-- Tables -->
      <!-- Table 1: Faculties -->
      <g transform="translate(50, 100)">
        <rect width="200" height="130" rx="8" ry="8" fill="#1e293b" stroke="#475569" stroke-width="1.5"/>
        <rect width="200" height="30" rx="8" ry="8" fill="#f59e0b" opacity="0.2"/>
        <line x1="0" y1="30" x2="200" y2="30" stroke="#f59e0b" stroke-width="1.5"/>
        <text x="15" y="20" class="table-title">FACULTIES (Khoa)</text>
        <text x="15" y="50" class="field pk">PK  Id : int</text>
        <text x="15" y="70" class="field">    Name : varchar</text>
        <text x="15" y="90" class="field">    Code : varchar (Unique)</text>
        <text x="15" y="110" class="field">    Description : varchar</text>
      </g>

      <!-- Table 2: Majors -->
      <g transform="translate(50, 280)">
        <rect width="200" height="130" rx="8" ry="8" fill="#1e293b" stroke="#475569" stroke-width="1.5"/>
        <rect width="200" height="30" rx="8" ry="8" fill="#f59e0b" opacity="0.2"/>
        <line x1="0" y1="30" x2="200" y2="30" stroke="#f59e0b" stroke-width="1.5"/>
        <text x="15" y="20" class="table-title">MAJORS (Chuyên ngành)</text>
        <text x="15" y="50" class="field pk">PK  Id : int</text>
        <text x="15" y="70" class="field fk">FK  FacultyId : int</text>
        <text x="15" y="90" class="field">    Name : varchar</text>
        <text x="15" y="110" class="field">    Code : varchar (Unique)</text>
      </g>

      <!-- Table 3: PlagiarismSources -->
      <g transform="translate(500, 50)">
        <rect width="200" height="150" rx="8" ry="8" fill="#1e293b" stroke="#475569" stroke-width="1.5"/>
        <rect width="200" height="30" rx="8" ry="8" fill="#ef4444" opacity="0.2"/>
        <line x1="0" y1="30" x2="200" y2="30" stroke="#ef4444" stroke-width="1.5"/>
        <text x="15" y="20" class="table-title">PLAGIARISM_SOURCES</text>
        <text x="15" y="50" class="field pk">PK  Id : int</text>
        <text x="15" y="70" class="field fk">FK  ThesisId : int</text>
        <text x="15" y="90" class="field fk">FK  ReportId : int</text>
        <text x="15" y="110" class="field">    SourceUrl : varchar</text>
        <text x="15" y="130" class="field">    SourceTitle : varchar</text>
        <text x="15" y="150" class="field">    MatchPercentage : double</text>
      </g>

      <!-- Table 4: Semesters -->
      <g transform="translate(800, 100)">
        <rect width="200" height="130" rx="8" ry="8" fill="#1e293b" stroke="#475569" stroke-width="1.5"/>
        <rect width="200" height="30" rx="8" ry="8" fill="#10b981" opacity="0.2"/>
        <line x1="0" y1="30" x2="200" y2="30" stroke="#10b981" stroke-width="1.5"/>
        <text x="15" y="20" class="table-title">SEMESTERS (Đợt/Học kỳ)</text>
        <text x="15" y="50" class="field pk">PK  Id : int</text>
        <text x="15" y="70" class="field">    SemesterName : varchar</text>
        <text x="15" y="90" class="field">    SemesterCode : varchar</text>
        <text x="15" y="110" class="field">    AcademicYear : varchar</text>
      </g>

      <!-- Table 5: Subjects -->
      <g transform="translate(1050, 100)">
        <rect width="200" height="130" rx="8" ry="8" fill="#1e293b" stroke="#475569" stroke-width="1.5"/>
        <rect width="200" height="30" rx="8" ry="8" fill="#10b981" opacity="0.2"/>
        <line x1="0" y1="30" x2="200" y2="30" stroke="#10b981" stroke-width="1.5"/>
        <text x="15" y="20" class="table-title">SUBJECTS (Học phần)</text>
        <text x="15" y="50" class="field pk">PK  Id : int</text>
        <text x="15" y="70" class="field">    Name : varchar</text>
        <text x="15" y="90" class="field">    Code : varchar (Unique)</text>
        <text x="15" y="110" class="field">    Credits : int</text>
      </g>

      <!-- Table 6: Users -->
      <g transform="translate(300, 280)">
        <rect width="200" height="210" rx="8" ry="8" fill="#1e293b" stroke="#475569" stroke-width="1.5"/>
        <rect width="200" height="30" rx="8" ry="8" fill="#a78bfa" opacity="0.2"/>
        <line x1="0" y1="30" x2="200" y2="30" stroke="#a78bfa" stroke-width="1.5"/>
        <text x="15" y="20" class="table-title">USERS (Tài khoản)</text>
        <text x="15" y="50" class="field pk">PK  Id : int</text>
        <text x="15" y="70" class="field">    FullName : varchar</text>
        <text x="15" y="90" class="field">    Email : varchar (Unique)</text>
        <text x="15" y="110" class="field">    Role : Student/Advisor/Admin</text>
        <text x="15" y="130" class="field">    PasswordHash : varchar</text>
        <text x="15" y="150" class="field fk">FK  MajorId : int (Nullable)</text>
        <text x="15" y="170" class="field">    StudentId : varchar (Nullable)</text>
        <text x="15" y="190" class="field">    IsActive : boolean</text>
      </g>

      <!-- Table 7: Theses -->
      <g transform="translate(550, 280)">
        <rect width="200" height="210" rx="8" ry="8" fill="#1e293b" stroke="#475569" stroke-width="1.5"/>
        <rect width="200" height="30" rx="8" ry="8" fill="#10b981" opacity="0.2"/>
        <line x1="0" y1="30" x2="200" y2="30" stroke="#10b981" stroke-width="1.5"/>
        <text x="15" y="20" class="table-title">THESES (Khóa luận/Đề tài)</text>
        <text x="15" y="50" class="field pk">PK  Id : int</text>
        <text x="15" y="70" class="field">    Title : varchar</text>
        <text x="15" y="90" class="field fk">FK  StudentId : int (Tác giả)</text>
        <text x="15" y="110" class="field fk">FK  AdvisorId : int (Cố vấn)</text>
        <text x="15" y="130" class="field fk">FK  SubjectId : int</text>
        <text x="15" y="150" class="field fk">FK  SemesterId : int</text>
        <text x="15" y="170" class="field">    Status : varchar</text>
        <text x="15" y="190" class="field">    Category : varchar</text>
      </g>

      <!-- Table 8: ThesisSubmissions -->
      <g transform="translate(800, 280)">
        <rect width="200" height="150" rx="8" ry="8" fill="#1e293b" stroke="#475569" stroke-width="1.5"/>
        <rect width="200" height="30" rx="8" ry="8" fill="#3b82f6" opacity="0.2"/>
        <line x1="0" y1="30" x2="200" y2="30" stroke="#3b82f6" stroke-width="1.5"/>
        <text x="15" y="20" class="table-title">SUBMISSIONS (Bản nộp file)</text>
        <text x="15" y="50" class="field pk">PK  Id : int</text>
        <text x="15" y="70" class="field fk">FK  ThesisId : int</text>
        <text x="15" y="90" class="field">    FilePath : varchar</text>
        <text x="15" y="110" class="field">    Version : int</text>
        <text x="15" y="130" class="field">    SubmittedAt : datetime</text>
      </g>

      <!-- Table 9: Notifications -->
      <g transform="translate(50, 530)">
        <rect width="200" height="150" rx="8" ry="8" fill="#1e293b" stroke="#475569" stroke-width="1.5"/>
        <rect width="200" height="30" rx="8" ry="8" fill="#3b82f6" opacity="0.2"/>
        <line x1="0" y1="30" x2="200" y2="30" stroke="#3b82f6" stroke-width="1.5"/>
        <text x="15" y="20" class="table-title">NOTIFICATIONS (Thông báo)</text>
        <text x="15" y="50" class="field pk">PK  Id : int</text>
        <text x="15" y="70" class="field fk">FK  UserId : int</text>
        <text x="15" y="90" class="field">    Title : varchar</text>
        <text x="15" y="110" class="field">    Message : varchar</text>
        <text x="15" y="130" class="field">    IsRead : boolean</text>
      </g>

      <!-- Table 10: ChatHistory -->
      <g transform="translate(300, 530)">
        <rect width="200" height="160" rx="8" ry="8" fill="#1e293b" stroke="#475569" stroke-width="1.5"/>
        <rect width="200" height="30" rx="8" ry="8" fill="#3b82f6" opacity="0.2"/>
        <line x1="0" y1="30" x2="200" y2="30" stroke="#3b82f6" stroke-width="1.5"/>
        <text x="15" y="20" class="table-title">CHAT_HISTORY (Trợ lý AI)</text>
        <text x="15" y="50" class="field pk">PK  Id : varchar</text>
        <text x="15" y="70" class="field">    Prompt : text</text>
        <text x="15" y="90" class="field">    Message : text</text>
        <text x="15" y="110" class="field">    Success : boolean</text>
        <text x="15" y="130" class="field fk">FK  UserId : int (Nullable)</text>
        <text x="15" y="150" class="field">    CreatedAt : datetime</text>
      </g>

      <!-- Table 11: PlagiarismReports -->
      <g transform="translate(750, 530)">
        <rect width="200" height="150" rx="8" ry="8" fill="#1e293b" stroke="#475569" stroke-width="1.5"/>
        <rect width="200" height="30" rx="8" ry="8" fill="#ef4444" opacity="0.2"/>
        <line x1="0" y1="30" x2="200" y2="30" stroke="#ef4444" stroke-width="1.5"/>
        <text x="15" y="20" class="table-title">PLAGIARISM_REPORTS</text>
        <text x="15" y="50" class="field pk">PK  Id : int</text>
        <text x="15" y="70" class="field fk">FK  ThesisId : int</text>
        <text x="15" y="90" class="field">    SimilarityPercentage : double</text>
        <text x="15" y="110" class="field">    ReportJson : text</text>
        <text x="15" y="130" class="field">    CheckedAt : datetime</text>
      </g>

      <!-- Table 12: SocialPosts -->
      <g transform="translate(1050, 530)">
        <rect width="200" height="170" rx="8" ry="8" fill="#1e293b" stroke="#475569" stroke-width="1.5"/>
        <rect width="200" height="30" rx="8" ry="8" fill="#ec4899" opacity="0.2"/>
        <line x1="0" y1="30" x2="200" y2="30" stroke="#ec4899" stroke-width="1.5"/>
        <text x="15" y="20" class="table-title">SOCIAL_POSTS (Tin tức)</text>
        <text x="15" y="50" class="field pk">PK  Id : int</text>
        <text x="15" y="70" class="field">    Title : varchar</text>
        <text x="15" y="90" class="field">    Category : varchar</text>
        <text x="15" y="110" class="field">    Image : varchar (Admin post)</text>
        <text x="15" y="130" class="field">    Content : text</text>
        <text x="15" y="150" class="field">    Published : boolean</text>
        <text x="15" y="170" class="field">    CloudinaryStatus : varchar</text>
      </g>

      <!-- Table 13: DriveFileRecords -->
      <g transform="translate(300, 740)">
        <rect width="200" height="210" rx="8" ry="8" fill="#1e293b" stroke="#475569" stroke-width="1.5"/>
        <rect width="200" height="30" rx="8" ry="8" fill="#6366f1" opacity="0.2"/>
        <line x1="0" y1="30" x2="200" y2="30" stroke="#6366f1" stroke-width="1.5"/>
        <text x="15" y="20" class="table-title">DRIVE_FILE_RECORDS</text>
        <text x="15" y="50" class="field pk">PK  Id : int</text>
        <text x="15" y="70" class="field">    FileName : varchar</text>
        <text x="15" y="90" class="field">    GoogleDriveFileId : varchar</text>
        <text x="15" y="110" class="field">    WebViewLink : varchar</text>
        <text x="15" y="130" class="field">    LocalPdfPath : varchar</text>
        <text x="15" y="150" class="field">    Category : varchar</text>
        <text x="15" y="170" class="field">    Major : varchar</text>
        <text x="15" y="190" class="field">    StudentUid : varchar</text>
      </g>

      <!-- Table 14: AuditLogs -->
      <g transform="translate(550, 740)">
        <rect width="200" height="160" rx="8" ry="8" fill="#1e293b" stroke="#475569" stroke-width="1.5"/>
        <rect width="200" height="30" rx="8" ry="8" fill="#f59e0b" opacity="0.2"/>
        <line x1="0" y1="30" x2="200" y2="30" stroke="#f59e0b" stroke-width="1.5"/>
        <text x="15" y="20" class="table-title">AUDIT_LOGS (Nhật ký bảo mật)</text>
        <text x="15" y="50" class="field pk">PK  Id : int</text>
        <text x="15" y="70" class="field">    Email : varchar</text>
        <text x="15" y="90" class="field">    Role : varchar (Admin/Advisor...)</text>
        <text x="15" y="110" class="field">    Success : boolean</text>
        <text x="15" y="130" class="field">    Message : varchar</text>
        <text x="15" y="150" class="field">    CreatedAt : datetime</text>
      </g>

      <!-- Table 15: MediaJobs -->
      <g transform="translate(1050, 740)">
        <rect width="200" height="160" rx="8" ry="8" fill="#1e293b" stroke="#475569" stroke-width="1.5"/>
        <rect width="200" height="30" rx="8" ry="8" fill="#ec4899" opacity="0.1"/>
        <line x1="0" y1="30" x2="200" y2="30" stroke="#ec4899" stroke-width="1.5"/>
        <text x="15" y="20" class="table-title">MEDIA_JOBS (Xử lý file)</text>
        <text x="15" y="50" class="field pk">PK  Id : varchar</text>
        <text x="15" y="70" class="field">    ResourceName : varchar</text>
        <text x="15" y="90" class="field">    JobType : varchar</text>
        <text x="15" y="110" class="field">    OriginalSizeKb : double</text>
        <text x="15" y="130" class="field">    OptimizedSizeKb : double</text>
        <text x="15" y="150" class="field">    Status : varchar</text>
      </g>
    </svg>
  